<?xml version="1.0" encoding="UTF-8" standalone="no"?>
<!-- Created with Inkscape (http://www.inkscape.org/) -->

<svg
   width="11.85508mm"
   height="20.538177mm"
   viewBox="0 0 11.85508 20.538177"
   version="1.1"
   id="svg5"
   xml:space="preserve"
   inkscape:version="1.2.2 (732a01da63, 2022-12-09, custom)"
   sodipodi:docname="lyricguessrlogo.svg"
   xmlns:inkscape="http://www.inkscape.org/namespaces/inkscape"
   xmlns:sodipodi="http://sodipodi.sourceforge.net/DTD/sodipodi-0.dtd"
   xmlns="http://www.w3.org/2000/svg"
   xmlns:svg="http://www.w3.org/2000/svg"><sodipodi:namedview
     id="namedview7"
     pagecolor="#ffffff"
     bordercolor="#666666"
     borderopacity="1.0"
     inkscape:showpageshadow="2"
     inkscape:pageopacity="0.0"
     inkscape:pagecheckerboard="0"
     inkscape:deskcolor="#d1d1d1"
     inkscape:document-units="mm"
     showgrid="false"
     inkscape:zoom="2.6003436"
     inkscape:cx="294.38417"
     inkscape:cy="913.14856"
     inkscape:window-width="1280"
     inkscape:window-height="656"
     inkscape:window-x="0"
     inkscape:window-y="27"
     inkscape:window-maximized="1"
     inkscape:current-layer="layer1" /><defs
     id="defs2" /><g
     inkscape:label="Layer 1"
     inkscape:groupmode="layer"
     id="layer1"
     transform="translate(-107.8202,-226.35681)"><g
       id="g10648"
       transform="translate(30.089443,4.2506972)"><g
         id="g10630"
         transform="translate(3.1624091,26.662151)"
         style="fill:#000000;fill-opacity:1;stroke:#000000;stroke-width:3;stroke-dasharray:none;stroke-opacity:1"><g
           aria-label="G"
           id="g10626"
           style="font-size:10.5712px;line-height:1.25;font-family:BlackChancery;-inkscape-font-specification:BlackChancery;word-spacing:0px;fill:#000000;fill-opacity:1;stroke:#000000;stroke-width:3.5649;stroke-dasharray:none;stroke-opacity:1"
           transform="matrix(1.0021598,0,0,0.70665938,25.187565,110.29806)"><path
             d="m 55.448906,132.3154 c 0.3649,0.0339 0.854712,0.061 1.573554,0.19492 1.108898,0.30435 1.621377,-0.34951 1.01639,1.12648 -0.06343,0.18324 -0.116283,0.41581 -0.158568,0.6977 -0.225519,-0.64837 -0.514603,-0.9684 -1.007926,-1.21506 -0.493323,-0.24666 -1.375229,-0.32364 -2.143403,-0.32364 -0.937313,0 -1.401513,0.48612 -1.789124,1.09925 -0.380563,0.61313 -0.570845,1.3954 -0.570845,2.34681 0,1.31787 0.274851,2.47013 0.824554,3.45678 0.55675,0.9796 1.374256,1.4694 2.452518,1.4694 0.634273,0 1.145214,-0.18323 1.532825,-0.5497 0.394658,-0.35942 0.591987,-0.84922 0.591987,-1.4694 0,-0.61313 -0.144473,-0.98664 -0.433419,-1.12055 -0.288947,-0.1339 -0.824554,-0.20085 -1.606823,-0.20085 -0.359421,0 -0.694175,0.0352 -1.004264,0.10571 -0.310089,0.0705 -0.581416,0.27133 -0.813982,0.60256 0,-0.33828 0.183234,-0.68713 0.549702,-1.04655 0.373516,-0.36647 0.824554,-0.5497 1.353114,-0.5497 0.183234,0 0.373516,0.004 0.570845,0.0106 h 0.602558 c 0.697699,0 1.282639,-0.0176 1.754819,-0.0529 0.524947,-0.17305 0.933714,-0.50843 0.139426,-0.30115 -0.281899,0.27485 -0.312089,1.31599 -0.826554,1.31599 0.133902,0.15505 0.225519,0.30657 0.274851,0.45456 0.04933,0.14095 0.074,0.36999 0.074,0.68713 0,0.88093 -0.281899,1.49759 -0.845696,1.84996 -0.55675,0.35942 -1.286163,0.53913 -2.188239,0.53913 -1.508158,0 -2.604039,-0.40523 -3.287643,-1.21569 -0.676557,-0.81046 -1.014835,-1.75834 -1.014835,-2.84365 0,-1.43769 0.384087,-2.5829 1.152261,-3.43564 0.775221,-0.85275 1.691381,-1.77516 3.073786,-1.64681 z"
             style="font-weight:bold;fill:#000000;fill-opacity:1;stroke:#000000;stroke-width:3.5649;stroke-dasharray:none;stroke-opacity:1"
             id="path10624"
             sodipodi:nodetypes="scccsscscscssssccscsccccscscscss" /></g><path
           id="path10628"
           stroke="#000000"
           d="m 81.45203,196.945 c -0.946209,-0.0173 -2.052824,1.57587 -2.016034,2.99671 0.008,0.43276 0.202245,1.31044 0.484875,2.41274 -1.782402,1.30085 -3.852133,2.63587 -3.852133,4.38755 -0.02836,1.60525 1.362908,3.65039 4.663912,3.63072 0.506672,-0.003 0.962594,-0.0467 1.367617,-0.12294 0.301801,1.16672 0.502483,2.08755 0.501261,2.51293 0.01063,1.67694 -3.113921,1.8429 -3.263694,0.87904 0.658529,-0.0159 1.182448,-0.38481 1.182448,-0.84093 0,-0.46594 -0.547109,-0.84583 -1.226043,-0.84583 -0.373284,0 -0.705941,0.11556 -0.931557,0.29629 -0.005,0.004 -0.01133,0.007 -0.01643,0.0111 -0.05091,0.0382 -0.09381,0.0837 -0.136173,0.13524 -0.139131,0.16597 -0.229446,0.40448 -0.234326,0.74502 0,1.40401 5.03441,2.30764 5.03441,-0.46103 0.008,-0.37252 -0.219333,-1.31793 -0.550256,-2.50924 -0.934413,-3.42255 -1.215289,-4.1899 -1.885263,-6.45786 1.255166,-0.86934 2.351138,-1.99462 2.326554,-4.06852 0.004,-1.48932 -0.555723,-2.68458 -1.305088,-2.70192 z m 0.223341,1.44077 c 0.428203,-0.0292 0.768196,0.25116 0.768196,0.86821 0.03468,1.05975 -1.018215,1.98526 -2.271976,2.91606 -0.119959,-0.50985 -0.198588,-0.92293 -0.207137,-1.16795 0.03558,-1.65554 0.997119,-2.56776 1.710917,-2.61632 z m -1.34582,5.4939 c 1.47569,5.70812 0.570389,2.3909 1.699933,6.10456 -0.367361,0.091 -0.796095,0.14384 -1.296834,0.1463 -1.252028,0 -3.75397,-0.56185 -3.75397,-2.68935 0,-1.78193 1.751715,-2.50606 3.350871,-3.56151 z"
           style="fill:#000000;fill-opacity:1;stroke:#000000;stroke-width:3;stroke-dasharray:none;stroke-opacity:1"
           sodipodi:nodetypes="ccccccccssccccccccccccccccccsc"
           inkscape:export-filename="../a9f31460/lyricguessrlogo1.png"
           inkscape:export-xdpi="280"
           inkscape:export-ydpi="280" /></g><g
         id="g10638"
         transform="translate(3.1624091,26.662151)"
         style="fill:#ffffff;fill-opacity:1;stroke:#ffffff;stroke-opacity:1"><path
           id="path10632"
           stroke="#000000"
           d="m 81.45203,196.945 c -0.946209,-0.0173 -2.052824,1.57587 -2.016034,2.99671 0.008,0.43276 0.202245,1.31044 0.484875,2.41274 -1.782402,1.30085 -3.852133,2.63587 -3.852133,4.38755 -0.02836,1.60525 1.362908,3.65039 4.663912,3.63072 0.506672,-0.003 0.962594,-0.0467 1.367617,-0.12294 0.301801,1.16672 0.502483,2.08755 0.501261,2.51293 0.01063,1.67694 -3.113921,1.8429 -3.263694,0.87904 0.658529,-0.0159 1.182448,-0.38481 1.182448,-0.84093 0,-0.46594 -0.547109,-0.84583 -1.226043,-0.84583 -0.373284,0 -0.705941,0.11556 -0.931557,0.29629 -0.005,0.004 -0.01133,0.007 -0.01643,0.0111 -0.05091,0.0382 -0.09381,0.0837 -0.136173,0.13524 -0.139131,0.16597 -0.229446,0.40448 -0.234326,0.74502 0,1.40401 5.03441,2.30764 5.03441,-0.46103 0.008,-0.37252 -0.219333,-1.31793 -0.550256,-2.50924 -0.934413,-3.42255 -1.215289,-4.1899 -1.885263,-6.45786 1.255166,-0.86934 2.351138,-1.99462 2.326554,-4.06852 0.004,-1.48932 -0.699848,-2.68357 -1.449213,-2.70091 z m 0.223341,1.44077 c 0.428203,-0.0292 0.768196,0.25116 0.768196,0.86821 0.03468,1.05975 -1.018215,1.98526 -2.271976,2.91606 -0.119959,-0.50985 -0.198588,-0.92293 -0.207137,-1.16795 0.03558,-1.65554 0.997119,-2.56776 1.710917,-2.61632 z m -1.34582,5.4939 c 1.47569,5.70812 0.570389,2.3909 1.699933,6.10456 -0.367361,0.091 -0.796095,0.14384 -1.296834,0.1463 -1.252028,0 -3.75397,-0.56185 -3.75397,-2.68935 0,-1.78193 1.751715,-2.50606 3.350871,-3.56151 z"
           style="fill:#ffffff;fill-opacity:1;stroke:#ffffff;stroke-width:0.146407;stroke-opacity:1"
           sodipodi:nodetypes="ccccccccssccccccccccccccccccsc"
           inkscape:export-filename="../a9f31460/lyricguessrlogo1.png"
           inkscape:export-xdpi="280"
           inkscape:export-ydpi="280" /><g
           aria-label="G"
           id="g10636"
           style="font-size:10.5712px;line-height:1.25;font-family:BlackChancery;-inkscape-font-specification:BlackChancery;word-spacing:0px;fill:#ffffff;fill-opacity:1;stroke:#ffffff;stroke-width:0.264281;stroke-opacity:1"
           transform="matrix(1.0021598,0,0,0.70665938,25.187565,110.29806)"><path
             d="m 55.448906,132.3154 c 0.3649,0.0339 0.854712,0.061 1.573554,0.19492 0.725889,0.1339 1.241909,0.20679 1.439238,0.20679 -0.218471,0.42285 -0.359421,0.72941 -0.422848,0.91969 -0.06343,0.18324 -0.116283,0.41581 -0.158568,0.6977 -0.225519,-0.64837 -0.514603,-0.9684 -1.007926,-1.21506 -0.493323,-0.24666 -1.375229,-0.32364 -2.143403,-0.32364 -0.937313,0 -1.401513,0.48612 -1.789124,1.09925 -0.380563,0.61313 -0.570845,1.3954 -0.570845,2.34681 0,1.31787 0.274851,2.47013 0.824554,3.45678 0.55675,0.9796 1.374256,1.4694 2.452518,1.4694 0.634273,0 1.145214,-0.18323 1.532825,-0.5497 0.394658,-0.35942 0.591987,-0.84922 0.591987,-1.4694 0,-0.61313 -0.144473,-0.98664 -0.433419,-1.12055 -0.288947,-0.1339 -0.824554,-0.20085 -1.606823,-0.20085 -0.359421,0 -0.694175,0.0352 -1.004264,0.10571 -0.310089,0.0705 -0.581416,0.27133 -0.813982,0.60256 0,-0.33828 0.183234,-0.68713 0.549702,-1.04655 0.373516,-0.36647 0.824554,-0.5497 1.353114,-0.5497 0.183234,0 0.373516,0.004 0.570845,0.0106 h 0.602558 c 0.697699,0 1.282639,-0.0176 1.754819,-0.0529 0.472181,-0.0352 0.835125,-0.10567 1.088834,-0.21142 -0.09866,0.26781 -0.29247,0.53913 -0.581416,0.81398 -0.281899,0.27485 -0.680081,0.41228 -1.194546,0.41228 0.133902,0.15505 0.225519,0.30657 0.274851,0.45456 0.04933,0.14095 0.074,0.36999 0.074,0.68713 0,0.88093 -0.281899,1.49759 -0.845696,1.84996 -0.55675,0.35942 -1.286163,0.53913 -2.188239,0.53913 -1.508158,0 -2.604039,-0.40523 -3.287643,-1.21569 -0.676557,-0.81046 -1.014835,-1.75834 -1.014835,-2.84365 0,-1.43769 0.384087,-2.5829 1.152261,-3.43564 0.775221,-0.85275 1.691381,-1.77516 3.073786,-1.64681 z"
             style="font-weight:bold;fill:#ffffff;fill-opacity:1;stroke:#ffffff;stroke-opacity:1"
             id="path10634"
             sodipodi:nodetypes="sccccsscscscssssccscscccccscscscss" /></g></g></g></g></svg>
